<svg width="215.000000" height="136.000000" viewBox="0 0 215 136" fill="none" xmlns="http://www.w3.org/2000/svg" xmlns:xlink="http://www.w3.org/1999/xlink">
	<desc>
			Created with Pixso.
	</desc>
	<defs/>
	<path id="Vector" d="M106.79 0C82.05 0 62 20.14 62 45C62 68.27 79.59 87.42 102.14 89.75C100.78 78.49 101.29 69.27 103.02 61.69C102.05 56.99 99.84 50.03 94.83 45.09C94.83 45.09 98.13 50.06 99.91 56.73C99.91 56.74 99.92 56.75 99.92 56.76C100.11 57.47 100.28 58.19 100.43 58.93C100.46 59.1 100.49 59.27 100.53 59.45C100.66 60.22 100.79 60.98 100.87 61.77C75.56 58.65 70.17 35.83 70.76 27.23C97.68 28.72 103.2 46.78 104 57.98C112.82 28.97 140.83 27.29 143.14 27.23C144.14 49.52 127.68 66.91 108 68.43C108.13 67.82 108.28 67.22 108.42 66.63C108.47 66.44 108.52 66.28 108.57 66.09C108.69 65.67 108.8 65.25 108.94 64.82C108.99 64.64 109.06 64.45 109.11 64.27C109.26 63.8 109.42 63.35 109.57 62.88C109.62 62.77 109.65 62.67 109.69 62.56C109.89 62.01 110.1 61.48 110.31 60.95C110.34 60.91 110.35 60.85 110.37 60.81C110.37 60.81 110.37 60.81 110.38 60.81C115.42 48.55 124.74 40.52 124.74 40.52C106.46 51.13 103.38 78.71 102.89 89.79C104.18 89.91 105.47 90 106.79 90C131.53 90 151.58 69.85 151.58 45C151.58 20.14 131.53 0 106.79 0Z" fill="#46A358" fill-opacity="1.000000" fill-rule="nonzero"/>
	<path id="Vector" d="M13.12 110.02C17.54 110.02 21.16 111.93 23.5 115.41L19.11 119.16C17.54 116.96 15.64 115.82 13.01 115.82C8.96 115.82 6.43 118.5 6.43 122.58C6.43 126.73 9.1 129.52 13.38 129.52C15.68 129.52 17.51 128.71 18.68 127.35L18.68 126.21L13.05 126.21L13.05 120.78L24.97 120.78L24.97 128.42C23.83 130.44 22.22 132.05 20.14 133.3C18.06 134.51 15.72 135.13 13.12 135.13C5.88 135.25 -0.11 129.59 0 122.58C-0.11 115.6 5.88 109.91 13.12 110.02Z" fill="#46A358" fill-opacity="1.000000" fill-rule="nonzero"/>
	<path id="Vector" d="M42.88 134.68L37.44 127.15L34.84 127.15L34.84 134.68L28.56 134.68L28.56 110.45L38.02 110.45C43.39 110.45 47.34 113.75 47.34 118.78C47.34 121.75 45.92 124.22 43.54 125.68L49.9 134.68L42.88 134.68ZM34.84 121.64L38.05 121.64C39.8 121.64 40.94 120.5 40.94 118.78C40.94 117.06 39.8 115.95 38.05 115.95L34.84 115.95L34.84 121.64Z" fill="#46A358" fill-opacity="1.000000" fill-rule="nonzero"/>
	<path id="Vector" d="M52.39 110.45L69.12 110.45L69.12 116.14L58.67 116.14L58.67 119.48L66.12 119.48L66.12 124.77L58.67 124.77L58.67 128.99L69.56 128.99L69.56 134.68L52.39 134.68L52.39 110.45Z" fill="#46A358" fill-opacity="1.000000" fill-rule="nonzero"/>
	<path id="Vector" d="M73.48 110.45L90.22 110.45L90.22 116.14L79.77 116.14L79.77 119.48L87.22 119.48L87.22 124.77L79.77 124.77L79.77 128.99L90.66 128.99L90.66 134.68L73.48 134.68L73.48 110.45Z" fill="#46A358" fill-opacity="1.000000" fill-rule="nonzero"/>
	<path id="Vector" d="M115.96 110.45L115.96 135.12L113.95 135.12L100.87 122.38L100.87 134.68L94.58 134.68L94.58 110L96.59 110L109.68 122.56L109.68 110.45L115.96 110.45Z" fill="#46A358" fill-opacity="1.000000" fill-rule="nonzero"/>
	<path id="Vector" d="M123.45 126.45C124.88 128.36 126.38 129.57 128.83 129.57C130.47 129.57 131.31 128.99 131.31 127.81C131.31 126.75 130.76 126.41 128.86 125.57L126.37 124.46C122.39 122.7 120.27 120.42 120.27 117.16C120.27 112.86 123.78 110 128.71 110C132.69 110 135.5 111.91 136.97 114.88L132.76 118.11C131.59 116.35 130.5 115.54 128.78 115.54C127.46 115.54 126.63 116.06 126.63 117.09C126.63 117.97 127.14 118.45 128.71 119.07L131.48 120.24C135.69 122.01 137.66 124.13 137.66 127.55C137.66 132.24 133.82 135.11 128.81 135.11C124.46 135.11 120.95 133.02 119.2 129.68L123.45 126.45Z" fill="#46A358" fill-opacity="1.000000" fill-rule="nonzero"/>
	<path id="Vector" d="M141.27 110.45L147.55 110.45L147.55 119.3L156.36 119.3L156.36 110.45L162.65 110.45L162.65 134.68L156.36 134.68L156.36 124.99L147.55 124.99L147.55 134.68L141.27 134.68L141.27 110.45Z" fill="#46A358" fill-opacity="1.000000" fill-rule="nonzero"/>
	<path id="Vector" d="M179.21 110C186.23 109.85 192.4 115.62 192.25 122.56C192.39 129.57 186.23 135.23 179.21 135.12C172.16 135.23 166.08 129.57 166.23 122.56C166.08 115.62 172.16 109.86 179.21 110ZM179.24 115.8C175.37 115.8 172.66 118.56 172.66 122.56C172.66 124.58 173.28 126.23 174.49 127.48C175.7 128.7 177.31 129.32 179.24 129.32C182.97 129.32 185.82 126.6 185.82 122.56C185.82 118.56 182.97 115.8 179.24 115.8Z" fill="#46A358" fill-opacity="1.000000" fill-rule="nonzero"/>
	<path id="Vector" d="M195.85 110.45L205.32 110.45C210.69 110.45 214.64 113.75 214.64 118.78C214.64 123.74 210.59 127.15 205.32 127.15L202.14 127.15L202.14 134.68L195.85 134.68L195.85 110.45ZM205.35 121.64C207.1 121.64 208.23 120.5 208.23 118.78C208.23 117.06 207.1 115.95 205.35 115.95L202.13 115.95L202.13 121.64L205.35 121.64Z" fill="#46A358" fill-opacity="1.000000" fill-rule="nonzero"/>
</svg>
