<svg width="27.000000" height="24.000000" viewBox="0 0 27 24" fill="none" xmlns="http://www.w3.org/2000/svg" xmlns:xlink="http://www.w3.org/1999/xlink">
	<desc>
			Created with Pixso.
	</desc>
	<defs/>
	<path id="Vector" d="M13.38 12.89C9.28 12.89 5.18 12.89 1.09 12.89C0.96 12.89 0.82 12.89 0.7 12.86C0.25 12.76 -0.05 12.33 0 11.89C0.06 11.44 0.43 11.11 0.91 11.1C1.98 11.1 3.05 11.1 4.12 11.1C11.32 11.1 18.52 11.1 25.71 11.1C25.85 11.1 26 11.1 26.13 11.13C26.57 11.23 26.86 11.65 26.81 12.09C26.77 12.53 26.39 12.88 25.92 12.88C24.71 12.89 23.5 12.89 22.29 12.89C19.32 12.89 16.35 12.89 13.38 12.89C13.38 12.89 13.38 12.89 13.38 12.89Z" fill="#FFFFFF" fill-opacity="1.000000" fill-rule="nonzero"/>
	<path id="Vector" d="M10.55 24C9.2 23.79 7.81 23.72 6.51 23.36C3.76 22.61 2.19 20.72 1.74 17.92C1.57 16.89 1.47 15.84 1.35 14.8C1.28 14.17 1.58 13.76 2.13 13.69C2.67 13.62 3.07 13.98 3.13 14.52C3.26 15.7 3.35 16.89 3.57 18.06C3.98 20.16 5.7 21.62 7.83 21.81C8.84 21.9 9.85 22.01 10.86 22.13C11.59 22.21 11.93 23.03 11.49 23.63C11.3 23.88 11.08 23.96 10.55 24Z" fill="#FFFFFF" fill-opacity="1.000000" fill-rule="nonzero"/>
	<path id="Vector" d="M25.44 9.39C25.43 9.53 25.43 9.67 25.39 9.8C25.3 10.11 25 10.37 24.74 10.38C24.3 10.39 23.79 10.06 23.69 9.64C23.62 9.35 23.62 9.04 23.58 8.74C23.45 7.78 23.39 6.81 23.18 5.87C22.76 3.95 21.53 2.73 19.61 2.32C18.47 2.07 17.29 1.99 16.13 1.84C16 1.83 15.87 1.82 15.75 1.79C15.33 1.68 15.05 1.28 15.11 0.87C15.16 0.4 15.52 0.05 15.97 0.08C17.5 0.19 19.04 0.3 20.51 0.77C22.86 1.52 24.34 3.15 24.9 5.53C25.2 6.79 25.3 8.1 25.49 9.38C25.47 9.39 25.46 9.39 25.44 9.39Z" fill="#FFFFFF" fill-opacity="1.000000" fill-rule="nonzero"/>
	<path id="Vector" d="M25.42 14.88C25.29 16.16 25.2 17.58 24.81 18.94C24.07 21.51 21.89 23.28 19.23 23.54C18.15 23.65 17.07 23.81 15.99 23.94C15.61 23.99 15.2 23.62 15.12 23.16C15.04 22.7 15.32 22.25 15.78 22.19C16.32 22.12 16.87 22.1 17.42 22.03C18.32 21.91 19.25 21.88 20.11 21.6C21.96 21.01 23 19.66 23.27 17.74C23.42 16.72 23.53 15.7 23.63 14.67C23.69 14.08 24.08 13.66 24.6 13.69C25.1 13.72 25.45 14.17 25.42 14.88Z" fill="#FFFFFF" fill-opacity="1.000000" fill-rule="nonzero"/>
	<path id="Vector" d="M1.32 9.27C1.52 7.95 1.62 6.6 1.94 5.31C2.6 2.71 4.34 1.11 6.95 0.53C8.13 0.26 9.34 0.17 10.54 0.01C10.72 -0.01 10.92 -0.01 11.09 0.03C11.51 0.13 11.75 0.5 11.71 0.94C11.67 1.39 11.36 1.69 10.92 1.73C9.84 1.86 8.76 1.97 7.68 2.12C5.41 2.44 3.83 4.02 3.52 6.28C3.37 7.36 3.25 8.45 3.12 9.54C3.07 9.98 2.7 10.31 2.24 10.3C1.79 10.3 1.41 9.94 1.39 9.5C1.38 9.43 1.38 9.36 1.38 9.28C1.36 9.28 1.34 9.27 1.32 9.27Z" fill="#FFFFFF" fill-opacity="1.000000" fill-rule="nonzero"/>
</svg>
